<svg width="8" height="8" viewBox="0 0 8 8" fill="none" xmlns="http://www.w3.org/2000/svg">
<path d="M0.0976312 0.569036C-0.0325437 0.438861 -0.0325437 0.227806 0.0976312 0.0976311C0.227806 -0.0325437 0.438862 -0.0325437 0.569036 0.0976311L4 3.5286L7.43096 0.0976311C7.56114 -0.0325437 7.77219 -0.0325437 7.90237 0.0976311C8.03254 0.227806 8.03254 0.438861 7.90237 0.569036L4.4714 4L7.90237 7.43096C8.03254 7.56114 8.03254 7.77219 7.90237 7.90237C7.77219 8.03254 7.56114 8.03254 7.43096 7.90237L4 4.4714L0.569036 7.90237C0.438861 8.03254 0.227806 8.03254 0.0976315 7.90237C-0.0325433 7.77219 -0.0325433 7.56114 0.0976315 7.43096L3.5286 4L0.0976312 0.569036Z" fill="#FF6C47"/>
</svg>
