<svg width="17" height="17" viewBox="0 0 17 17" fill="none" xmlns="http://www.w3.org/2000/svg">
<path d="M16.1237 2.86522C16.6729 2.31604 16.6729 1.42566 16.1237 0.876481C15.5745 0.327306 14.6841 0.327306 14.135 0.876481L8.50023 6.51123L2.86548 0.876481C2.31631 0.327307 1.42592 0.327307 0.876742 0.876481C0.327568 1.42566 0.327568 2.31604 0.876742 2.86522L6.51149 8.49997L0.876725 14.1347C0.32755 14.6839 0.32755 15.5743 0.876725 16.1235C1.4259 16.6726 2.31629 16.6726 2.86546 16.1235L8.50023 10.4887L14.135 16.1235C14.6842 16.6726 15.5746 16.6726 16.1237 16.1235C16.6729 15.5743 16.6729 14.6839 16.1237 14.1347L10.489 8.49997L16.1237 2.86522Z" fill="#403F40"/>
</svg>
