<svg width="24" height="25" viewBox="0 0 24 25" fill="none" xmlns="http://www.w3.org/2000/svg">
<path d="M22.5 21.5C22.5 21.5 24 21.5 24 20C24 18.5 22.5 14 16.5 14C10.5 14 9 18.5 9 20C9 21.5 10.5 21.5 10.5 21.5H22.5ZM10.5335 20C10.5283 19.9994 10.521 19.9984 10.5122 19.997C10.5081 19.9963 10.504 19.9955 10.5 19.9948C10.5022 19.5987 10.7503 18.4504 11.6389 17.4137C12.47 16.444 13.924 15.5 16.5 15.5C19.076 15.5 20.53 16.444 21.3611 17.4137C22.2497 18.4504 22.4978 19.5987 22.5 19.9948C22.496 19.9955 22.4919 19.9963 22.4878 19.997C22.479 19.9984 22.4717 19.9994 22.4665 20H10.5335Z" fill="#403F40"/>
<path d="M16.5 11C18.1569 11 19.5 9.65685 19.5 8C19.5 6.34315 18.1569 5 16.5 5C14.8431 5 13.5 6.34315 13.5 8C13.5 9.65685 14.8431 11 16.5 11ZM21 8C21 10.4853 18.9853 12.5 16.5 12.5C14.0147 12.5 12 10.4853 12 8C12 5.51472 14.0147 3.5 16.5 3.5C18.9853 3.5 21 5.51472 21 8Z" fill="#403F40"/>
<path d="M10.4039 14.4199C9.8522 14.2435 9.2393 14.1152 8.55942 14.0496C8.22292 14.0171 7.87002 14 7.5 14C1.5 14 0 18.5 0 20C0 21 0.5 21.5 1.5 21.5H7.82454C7.61334 21.0739 7.5 20.5687 7.5 20C7.5 18.4846 8.06587 16.937 9.13473 15.6443C9.4999 15.2026 9.9238 14.7907 10.4039 14.4199ZM7.38006 15.5007C6.48383 16.8704 6 18.432 6 20H1.5C1.5 19.6089 1.74637 18.455 2.63888 17.4137C3.45703 16.4592 4.87874 15.5295 7.38006 15.5007Z" fill="#403F40"/>
<path d="M2.25 8.75C2.25 6.26472 4.26472 4.25 6.75 4.25C9.23528 4.25 11.25 6.26472 11.25 8.75C11.25 11.2353 9.23528 13.25 6.75 13.25C4.26472 13.25 2.25 11.2353 2.25 8.75ZM6.75 5.75C5.09315 5.75 3.75 7.09315 3.75 8.75C3.75 10.4069 5.09315 11.75 6.75 11.75C8.40685 11.75 9.75 10.4069 9.75 8.75C9.75 7.09315 8.40685 5.75 6.75 5.75Z" fill="#403F40"/>
</svg>
