<svg width="24" height="25" viewBox="0 0 24 25" fill="none" xmlns="http://www.w3.org/2000/svg">
<path d="M21 2C21.8284 2 22.5 2.67157 22.5 3.5V15.5C22.5 16.3284 21.8284 17 21 17H6.62132C5.82567 17 5.06261 17.3161 4.5 17.8787L1.5 20.8787V3.5C1.5 2.67157 2.17157 2 3 2H21ZM3 0.5C1.34315 0.5 0 1.84315 0 3.5V22.6893C0 23.3575 0.807855 23.6921 1.28033 23.2197L5.56066 18.9393C5.84196 18.658 6.2235 18.5 6.62132 18.5H21C22.6569 18.5 24 17.1569 24 15.5V3.5C24 1.84315 22.6569 0.5 21 0.5H3Z" fill="#403F40"/>
<path d="M4.5 5.75C4.5 5.33579 4.83579 5 5.25 5H18.75C19.1642 5 19.5 5.33579 19.5 5.75C19.5 6.16421 19.1642 6.5 18.75 6.5H5.25C4.83579 6.5 4.5 6.16421 4.5 5.75ZM4.5 9.5C4.5 9.08579 4.83579 8.75 5.25 8.75H18.75C19.1642 8.75 19.5 9.08579 19.5 9.5C19.5 9.91421 19.1642 10.25 18.75 10.25H5.25C4.83579 10.25 4.5 9.91421 4.5 9.5ZM4.5 13.25C4.5 12.8358 4.83579 12.5 5.25 12.5H12.75C13.1642 12.5 13.5 12.8358 13.5 13.25C13.5 13.6642 13.1642 14 12.75 14H5.25C4.83579 14 4.5 13.6642 4.5 13.25Z" fill="#403F40"/>
</svg>
