<svg width="20" height="20" viewBox="0 0 20 20" fill="none" xmlns="http://www.w3.org/2000/svg">
<path d="M6.25 3.75C6.25 1.67893 7.92893 0 10 0C12.0711 0 13.75 1.67893 13.75 3.75V10C13.75 12.0711 12.0711 13.75 10 13.75C7.92893 13.75 6.25 12.0711 6.25 10V3.75Z" fill="#403F40"/>
<path d="M4.375 8.125C4.72018 8.125 5 8.40482 5 8.75V10C5 12.7614 7.23858 15 10 15C12.7614 15 15 12.7614 15 10V8.75C15 8.40482 15.2798 8.125 15.625 8.125C15.9702 8.125 16.25 8.40482 16.25 8.75V10C16.25 13.2408 13.7833 15.9056 10.625 16.2191V18.75H14.375C14.7202 18.75 15 19.0298 15 19.375C15 19.7202 14.7202 20 14.375 20H5.625C5.27982 20 5 19.7202 5 19.375C5 19.0298 5.27982 18.75 5.625 18.75H9.375V16.2191C6.21667 15.9056 3.75 13.2408 3.75 10V8.75C3.75 8.40482 4.02982 8.125 4.375 8.125Z" fill="#403F40"/>
</svg>
