<svg width="33" height="32" viewBox="0 0 33 32" fill="none" xmlns="http://www.w3.org/2000/svg">
<rect x="0.378906" width="32" height="32" rx="16" fill="#FFE4D8"/>
<path d="M21.2325 8.14645C21.0372 7.95118 20.7206 7.95118 20.5254 8.14645L18.8789 9.7929L22.586 13.5L24.2325 11.8536C24.4277 11.6583 24.4277 11.3417 24.2325 11.1464L21.2325 8.14645Z" fill="#FF6C47"/>
<path d="M21.8789 14.2071L18.1718 10.5L11.6718 17H11.8789C12.155 17 12.3789 17.2239 12.3789 17.5V18H12.8789C13.155 18 13.3789 18.2239 13.3789 18.5V19H13.8789C14.155 19 14.3789 19.2239 14.3789 19.5V20H14.8789C15.155 20 15.3789 20.2239 15.3789 20.5V20.7071L21.8789 14.2071Z" fill="#FF6C47"/>
<path d="M14.4106 21.6755C14.3901 21.6209 14.3789 21.5617 14.3789 21.5V21H13.8789C13.6028 21 13.3789 20.7761 13.3789 20.5V20H12.8789C12.6028 20 12.3789 19.7761 12.3789 19.5V19H11.8789C11.6028 19 11.3789 18.7761 11.3789 18.5V18H10.8789C10.8172 18 10.7581 17.9888 10.7035 17.9684L10.5254 18.1464C10.4775 18.1943 10.4398 18.2514 10.4147 18.3143L8.41468 23.3143C8.3404 23.5 8.38394 23.7121 8.52537 23.8536C8.6668 23.995 8.87891 24.0385 9.06462 23.9642L14.0646 21.9642C14.1275 21.9391 14.1846 21.9014 14.2325 21.8536L14.4106 21.6755Z" fill="#FF6C47"/>
</svg>
