<svg width="20" height="20" viewBox="0 0 20 20" fill="none" xmlns="http://www.w3.org/2000/svg">
<path d="M10.0003 0.857178C10.6315 0.857178 11.1431 1.36885 11.1431 2.00003V8.85718H18.0003C18.6315 8.85718 19.1431 9.36885 19.1431 10C19.1431 10.6312 18.6315 11.1429 18.0003 11.1429H11.1431V18C11.1431 18.6312 10.6315 19.1429 10.0003 19.1429C9.3691 19.1429 8.85742 18.6312 8.85742 18V11.1429H2.00028C1.3691 11.1429 0.857422 10.6312 0.857422 10C0.857422 9.36885 1.3691 8.85718 2.00028 8.85718H8.85742V2.00003C8.85742 1.36885 9.3691 0.857178 10.0003 0.857178Z" fill="#403F40"/>
</svg>
