<svg width="20" height="20" viewBox="0 0 20 20" fill="none" xmlns="http://www.w3.org/2000/svg">
<path d="M9.55807 11.6919L4.81696 16.433C4.42323 16.8268 4.70208 17.5 5.2589 17.5H14.7411C15.2979 17.5 15.5768 16.8268 15.1831 16.433L10.442 11.6919C10.1979 11.4478 9.80215 11.4478 9.55807 11.6919Z" fill="#FCFCFC"/>
<path d="M14.2678 13.75H18.125C18.4702 13.75 18.75 13.4702 18.75 13.125V4.375C18.75 4.02982 18.4702 3.75 18.125 3.75H1.875C1.52982 3.75 1.25 4.02982 1.25 4.375V13.125C1.25 13.4702 1.52982 13.75 1.875 13.75H5.73222L4.48222 15H1.875C0.839466 15 0 14.1605 0 13.125V4.375C0 3.33947 0.839466 2.5 1.875 2.5H18.125C19.1605 2.5 20 3.33947 20 4.375V13.125C20 14.1605 19.1605 15 18.125 15H15.5178L14.2678 13.75Z" fill="#FCFCFC"/>
</svg>
