<svg width="20" height="20" viewBox="0 0 20 20" fill="none" xmlns="http://www.w3.org/2000/svg">
<path fill-rule="evenodd" clip-rule="evenodd" d="M13.4238 15.7126C13.9224 15.3186 14.2673 14.7386 14.3538 14.0773L18.2423 15.8055C19.0689 16.1729 20 15.5678 20 14.6633V5.33673C20 4.43215 19.0689 3.82708 18.2423 4.19446L14.3538 5.92271C14.1935 4.69666 13.1448 3.75 11.875 3.75H4.87907L13.4238 15.7126ZM1.38085 4.01388C0.562029 4.42449 0 5.27161 0 6.25V13.75C0 15.1307 1.11929 16.25 2.5 16.25H10.1209L1.38085 4.01388Z" fill="#403F40"/>
<path fill-rule="evenodd" clip-rule="evenodd" d="M13.2412 19.1133L0.741211 1.61327L1.75838 0.886719L14.2584 18.3867L13.2412 19.1133Z" fill="#FF6C47"/>
</svg>
