<svg width="20" height="20" viewBox="0 0 20 20" fill="none" xmlns="http://www.w3.org/2000/svg">
<path d="M16.2505 10C16.2505 10.7054 16.1336 11.3835 15.9182 12.0161L14.9008 10.9986C14.9662 10.6759 15.0005 10.342 15.0005 10V8.75C15.0005 8.40482 15.2803 8.125 15.6255 8.125C15.9707 8.125 16.2505 8.40482 16.2505 8.75V10Z" fill="#403F40"/>
<path d="M10.0005 15C11.0228 15 11.9735 14.6932 12.7654 14.1666L13.6635 15.0646C12.7929 15.6954 11.7533 16.1072 10.6255 16.2191V18.75H14.3755C14.7207 18.75 15.0005 19.0298 15.0005 19.375C15.0005 19.7202 14.7207 20 14.3755 20H5.62549C5.28031 20 5.00049 19.7202 5.00049 19.375C5.00049 19.0298 5.28031 18.75 5.62549 18.75H9.37549V16.2191C6.21716 15.9056 3.75049 13.2408 3.75049 10V8.75C3.75049 8.40482 4.03031 8.125 4.37549 8.125C4.72067 8.125 5.00049 8.40482 5.00049 8.75V10C5.00049 12.7614 7.23906 15 10.0005 15Z" fill="#403F40"/>
<path d="M13.7505 3.75V9.84835L6.448 2.54586C6.94962 1.06546 8.35063 0 10.0005 0C12.0716 0 13.7505 1.67893 13.7505 3.75Z" fill="#403F40"/>
<path d="M11.8575 13.2587L6.25049 7.65165V10C6.25049 12.0711 7.92942 13.75 10.0005 13.75C10.6761 13.75 11.31 13.5713 11.8575 13.2587Z" fill="#403F40"/>
<path d="M2.05859 1.69191L17.0586 16.6919L17.9425 15.808L2.94248 0.808029L2.05859 1.69191Z" fill="#FF6C47"/>
</svg>
